<mxfile host="Electron" agent="Mozilla/5.0 (Windows NT 10.0; Win64; x64) AppleWebKit/537.36 (KHTML, like Gecko) draw.io/26.0.15 Chrome/132.0.6834.196 Electron/34.2.0 Safari/537.36" version="26.0.15">
  <diagram name="Page-1" id="33K3LRBZ-K-Br9jCt9Dh">
    <mxGraphModel dx="692" dy="614" grid="1" gridSize="10" guides="1" tooltips="1" connect="1" arrows="1" fold="1" page="1" pageScale="1" pageWidth="850" pageHeight="1100" math="0" shadow="0">
      <root>
        <mxCell id="0" />
        <mxCell id="1" parent="0" />
        <mxCell id="JfMbTLVUIL-YvnOcy8R8-32" value="" style="shape=table;startSize=0;container=1;collapsible=0;childLayout=tableLayout;strokeWidth=2;" vertex="1" parent="1">
          <mxGeometry x="70" y="200" width="360" height="240" as="geometry" />
        </mxCell>
        <mxCell id="JfMbTLVUIL-YvnOcy8R8-33" value="" style="shape=tableRow;horizontal=0;startSize=0;swimlaneHead=0;swimlaneBody=0;strokeColor=#d79b00;top=0;left=0;bottom=0;right=0;collapsible=0;dropTarget=0;fillColor=#ffe6cc;points=[[0,0.5],[1,0.5]];portConstraint=eastwest;strokeWidth=2;" vertex="1" parent="JfMbTLVUIL-YvnOcy8R8-32">
          <mxGeometry width="360" height="40" as="geometry" />
        </mxCell>
        <mxCell id="JfMbTLVUIL-YvnOcy8R8-34" value="" style="shape=partialRectangle;html=1;whiteSpace=wrap;connectable=0;strokeColor=inherit;overflow=hidden;fillColor=none;top=0;left=0;bottom=0;right=0;pointerEvents=1;strokeWidth=2;" vertex="1" parent="JfMbTLVUIL-YvnOcy8R8-33">
          <mxGeometry width="60" height="40" as="geometry">
            <mxRectangle width="60" height="40" as="alternateBounds" />
          </mxGeometry>
        </mxCell>
        <mxCell id="JfMbTLVUIL-YvnOcy8R8-35" value="C" style="shape=partialRectangle;html=1;whiteSpace=wrap;connectable=0;strokeColor=inherit;overflow=hidden;fillColor=none;top=0;left=0;bottom=0;right=0;pointerEvents=1;strokeWidth=2;" vertex="1" parent="JfMbTLVUIL-YvnOcy8R8-33">
          <mxGeometry x="60" width="60" height="40" as="geometry">
            <mxRectangle width="60" height="40" as="alternateBounds" />
          </mxGeometry>
        </mxCell>
        <mxCell id="JfMbTLVUIL-YvnOcy8R8-36" value="T" style="shape=partialRectangle;html=1;whiteSpace=wrap;connectable=0;strokeColor=inherit;overflow=hidden;fillColor=none;top=0;left=0;bottom=0;right=0;pointerEvents=1;strokeWidth=2;" vertex="1" parent="JfMbTLVUIL-YvnOcy8R8-33">
          <mxGeometry x="120" width="60" height="40" as="geometry">
            <mxRectangle width="60" height="40" as="alternateBounds" />
          </mxGeometry>
        </mxCell>
        <mxCell id="JfMbTLVUIL-YvnOcy8R8-37" value="A" style="shape=partialRectangle;html=1;whiteSpace=wrap;connectable=0;strokeColor=inherit;overflow=hidden;fillColor=none;top=0;left=0;bottom=0;right=0;pointerEvents=1;strokeWidth=2;" vertex="1" parent="JfMbTLVUIL-YvnOcy8R8-33">
          <mxGeometry x="180" width="60" height="40" as="geometry">
            <mxRectangle width="60" height="40" as="alternateBounds" />
          </mxGeometry>
        </mxCell>
        <mxCell id="JfMbTLVUIL-YvnOcy8R8-38" value="H" style="shape=partialRectangle;html=1;whiteSpace=wrap;connectable=0;strokeColor=inherit;overflow=hidden;fillColor=none;top=0;left=0;bottom=0;right=0;pointerEvents=1;strokeWidth=2;" vertex="1" parent="JfMbTLVUIL-YvnOcy8R8-33">
          <mxGeometry x="240" width="60" height="40" as="geometry">
            <mxRectangle width="60" height="40" as="alternateBounds" />
          </mxGeometry>
        </mxCell>
        <mxCell id="JfMbTLVUIL-YvnOcy8R8-39" value="OK" style="shape=partialRectangle;html=1;whiteSpace=wrap;connectable=0;strokeColor=inherit;overflow=hidden;fillColor=none;top=0;left=0;bottom=0;right=0;pointerEvents=1;strokeWidth=2;" vertex="1" parent="JfMbTLVUIL-YvnOcy8R8-33">
          <mxGeometry x="300" width="60" height="40" as="geometry">
            <mxRectangle width="60" height="40" as="alternateBounds" />
          </mxGeometry>
        </mxCell>
        <mxCell id="JfMbTLVUIL-YvnOcy8R8-40" value="" style="shape=tableRow;horizontal=0;startSize=0;swimlaneHead=0;swimlaneBody=0;strokeColor=inherit;top=0;left=0;bottom=0;right=0;collapsible=0;dropTarget=0;fillColor=none;points=[[0,0.5],[1,0.5]];portConstraint=eastwest;strokeWidth=2;" vertex="1" parent="JfMbTLVUIL-YvnOcy8R8-32">
          <mxGeometry y="40" width="360" height="40" as="geometry" />
        </mxCell>
        <mxCell id="JfMbTLVUIL-YvnOcy8R8-41" value="q0" style="shape=partialRectangle;html=1;whiteSpace=wrap;connectable=0;strokeColor=#d6b656;overflow=hidden;fillColor=#fff2cc;top=0;left=0;bottom=0;right=0;pointerEvents=1;strokeWidth=2;" vertex="1" parent="JfMbTLVUIL-YvnOcy8R8-40">
          <mxGeometry width="60" height="40" as="geometry">
            <mxRectangle width="60" height="40" as="alternateBounds" />
          </mxGeometry>
        </mxCell>
        <mxCell id="JfMbTLVUIL-YvnOcy8R8-42" value="q1" style="shape=partialRectangle;html=1;whiteSpace=wrap;connectable=0;strokeColor=inherit;overflow=hidden;fillColor=none;top=0;left=0;bottom=0;right=0;pointerEvents=1;strokeWidth=2;" vertex="1" parent="JfMbTLVUIL-YvnOcy8R8-40">
          <mxGeometry x="60" width="60" height="40" as="geometry">
            <mxRectangle width="60" height="40" as="alternateBounds" />
          </mxGeometry>
        </mxCell>
        <mxCell id="JfMbTLVUIL-YvnOcy8R8-43" value="q2" style="shape=partialRectangle;html=1;whiteSpace=wrap;connectable=0;strokeColor=inherit;overflow=hidden;fillColor=none;top=0;left=0;bottom=0;right=0;pointerEvents=1;strokeWidth=2;" vertex="1" parent="JfMbTLVUIL-YvnOcy8R8-40">
          <mxGeometry x="120" width="60" height="40" as="geometry">
            <mxRectangle width="60" height="40" as="alternateBounds" />
          </mxGeometry>
        </mxCell>
        <mxCell id="JfMbTLVUIL-YvnOcy8R8-44" value="q3" style="shape=partialRectangle;html=1;whiteSpace=wrap;connectable=0;strokeColor=inherit;overflow=hidden;fillColor=none;top=0;left=0;bottom=0;right=0;pointerEvents=1;strokeWidth=2;" vertex="1" parent="JfMbTLVUIL-YvnOcy8R8-40">
          <mxGeometry x="180" width="60" height="40" as="geometry">
            <mxRectangle width="60" height="40" as="alternateBounds" />
          </mxGeometry>
        </mxCell>
        <mxCell id="JfMbTLVUIL-YvnOcy8R8-45" value="q4" style="shape=partialRectangle;html=1;whiteSpace=wrap;connectable=0;strokeColor=inherit;overflow=hidden;fillColor=none;top=0;left=0;bottom=0;right=0;pointerEvents=1;strokeWidth=2;" vertex="1" parent="JfMbTLVUIL-YvnOcy8R8-40">
          <mxGeometry x="240" width="60" height="40" as="geometry">
            <mxRectangle width="60" height="40" as="alternateBounds" />
          </mxGeometry>
        </mxCell>
        <mxCell id="JfMbTLVUIL-YvnOcy8R8-46" value="" style="shape=partialRectangle;html=1;whiteSpace=wrap;connectable=0;strokeColor=inherit;overflow=hidden;fillColor=none;top=0;left=0;bottom=0;right=0;pointerEvents=1;strokeWidth=2;" vertex="1" parent="JfMbTLVUIL-YvnOcy8R8-40">
          <mxGeometry x="300" width="60" height="40" as="geometry">
            <mxRectangle width="60" height="40" as="alternateBounds" />
          </mxGeometry>
        </mxCell>
        <mxCell id="JfMbTLVUIL-YvnOcy8R8-47" value="" style="shape=tableRow;horizontal=0;startSize=0;swimlaneHead=0;swimlaneBody=0;strokeColor=inherit;top=0;left=0;bottom=0;right=0;collapsible=0;dropTarget=0;fillColor=none;points=[[0,0.5],[1,0.5]];portConstraint=eastwest;strokeWidth=2;" vertex="1" parent="JfMbTLVUIL-YvnOcy8R8-32">
          <mxGeometry y="80" width="360" height="40" as="geometry" />
        </mxCell>
        <mxCell id="JfMbTLVUIL-YvnOcy8R8-48" value="q1" style="shape=partialRectangle;html=1;whiteSpace=wrap;connectable=0;strokeColor=#d6b656;overflow=hidden;fillColor=#fff2cc;top=0;left=0;bottom=0;right=0;pointerEvents=1;strokeWidth=2;" vertex="1" parent="JfMbTLVUIL-YvnOcy8R8-47">
          <mxGeometry width="60" height="40" as="geometry">
            <mxRectangle width="60" height="40" as="alternateBounds" />
          </mxGeometry>
        </mxCell>
        <mxCell id="JfMbTLVUIL-YvnOcy8R8-49" value="" style="shape=partialRectangle;html=1;whiteSpace=wrap;connectable=0;strokeColor=inherit;overflow=hidden;fillColor=none;top=0;left=0;bottom=0;right=0;pointerEvents=1;strokeWidth=2;" vertex="1" parent="JfMbTLVUIL-YvnOcy8R8-47">
          <mxGeometry x="60" width="60" height="40" as="geometry">
            <mxRectangle width="60" height="40" as="alternateBounds" />
          </mxGeometry>
        </mxCell>
        <mxCell id="JfMbTLVUIL-YvnOcy8R8-50" value="" style="shape=partialRectangle;html=1;whiteSpace=wrap;connectable=0;strokeColor=inherit;overflow=hidden;fillColor=none;top=0;left=0;bottom=0;right=0;pointerEvents=1;strokeWidth=2;" vertex="1" parent="JfMbTLVUIL-YvnOcy8R8-47">
          <mxGeometry x="120" width="60" height="40" as="geometry">
            <mxRectangle width="60" height="40" as="alternateBounds" />
          </mxGeometry>
        </mxCell>
        <mxCell id="JfMbTLVUIL-YvnOcy8R8-51" value="" style="shape=partialRectangle;html=1;whiteSpace=wrap;connectable=0;strokeColor=inherit;overflow=hidden;fillColor=none;top=0;left=0;bottom=0;right=0;pointerEvents=1;strokeWidth=2;" vertex="1" parent="JfMbTLVUIL-YvnOcy8R8-47">
          <mxGeometry x="180" width="60" height="40" as="geometry">
            <mxRectangle width="60" height="40" as="alternateBounds" />
          </mxGeometry>
        </mxCell>
        <mxCell id="JfMbTLVUIL-YvnOcy8R8-52" value="" style="shape=partialRectangle;html=1;whiteSpace=wrap;connectable=0;strokeColor=inherit;overflow=hidden;fillColor=none;top=0;left=0;bottom=0;right=0;pointerEvents=1;strokeWidth=2;" vertex="1" parent="JfMbTLVUIL-YvnOcy8R8-47">
          <mxGeometry x="240" width="60" height="40" as="geometry">
            <mxRectangle width="60" height="40" as="alternateBounds" />
          </mxGeometry>
        </mxCell>
        <mxCell id="JfMbTLVUIL-YvnOcy8R8-53" value="q4" style="shape=partialRectangle;html=1;whiteSpace=wrap;connectable=0;strokeColor=inherit;overflow=hidden;fillColor=none;top=0;left=0;bottom=0;right=0;pointerEvents=1;strokeWidth=2;" vertex="1" parent="JfMbTLVUIL-YvnOcy8R8-47">
          <mxGeometry x="300" width="60" height="40" as="geometry">
            <mxRectangle width="60" height="40" as="alternateBounds" />
          </mxGeometry>
        </mxCell>
        <mxCell id="JfMbTLVUIL-YvnOcy8R8-54" value="" style="shape=tableRow;horizontal=0;startSize=0;swimlaneHead=0;swimlaneBody=0;strokeColor=inherit;top=0;left=0;bottom=0;right=0;collapsible=0;dropTarget=0;fillColor=none;points=[[0,0.5],[1,0.5]];portConstraint=eastwest;strokeWidth=2;" vertex="1" parent="JfMbTLVUIL-YvnOcy8R8-32">
          <mxGeometry y="120" width="360" height="40" as="geometry" />
        </mxCell>
        <mxCell id="JfMbTLVUIL-YvnOcy8R8-55" value="q2" style="shape=partialRectangle;html=1;whiteSpace=wrap;connectable=0;strokeColor=#d6b656;overflow=hidden;fillColor=#fff2cc;top=0;left=0;bottom=0;right=0;pointerEvents=1;strokeWidth=2;" vertex="1" parent="JfMbTLVUIL-YvnOcy8R8-54">
          <mxGeometry width="60" height="40" as="geometry">
            <mxRectangle width="60" height="40" as="alternateBounds" />
          </mxGeometry>
        </mxCell>
        <mxCell id="JfMbTLVUIL-YvnOcy8R8-56" value="" style="shape=partialRectangle;html=1;whiteSpace=wrap;connectable=0;strokeColor=inherit;overflow=hidden;fillColor=none;top=0;left=0;bottom=0;right=0;pointerEvents=1;strokeWidth=2;" vertex="1" parent="JfMbTLVUIL-YvnOcy8R8-54">
          <mxGeometry x="60" width="60" height="40" as="geometry">
            <mxRectangle width="60" height="40" as="alternateBounds" />
          </mxGeometry>
        </mxCell>
        <mxCell id="JfMbTLVUIL-YvnOcy8R8-57" value="" style="shape=partialRectangle;html=1;whiteSpace=wrap;connectable=0;strokeColor=inherit;overflow=hidden;fillColor=none;top=0;left=0;bottom=0;right=0;pointerEvents=1;strokeWidth=2;" vertex="1" parent="JfMbTLVUIL-YvnOcy8R8-54">
          <mxGeometry x="120" width="60" height="40" as="geometry">
            <mxRectangle width="60" height="40" as="alternateBounds" />
          </mxGeometry>
        </mxCell>
        <mxCell id="JfMbTLVUIL-YvnOcy8R8-58" value="" style="shape=partialRectangle;html=1;whiteSpace=wrap;connectable=0;strokeColor=inherit;overflow=hidden;fillColor=none;top=0;left=0;bottom=0;right=0;pointerEvents=1;strokeWidth=2;" vertex="1" parent="JfMbTLVUIL-YvnOcy8R8-54">
          <mxGeometry x="180" width="60" height="40" as="geometry">
            <mxRectangle width="60" height="40" as="alternateBounds" />
          </mxGeometry>
        </mxCell>
        <mxCell id="JfMbTLVUIL-YvnOcy8R8-59" value="" style="shape=partialRectangle;html=1;whiteSpace=wrap;connectable=0;strokeColor=inherit;overflow=hidden;fillColor=none;top=0;left=0;bottom=0;right=0;pointerEvents=1;strokeWidth=2;" vertex="1" parent="JfMbTLVUIL-YvnOcy8R8-54">
          <mxGeometry x="240" width="60" height="40" as="geometry">
            <mxRectangle width="60" height="40" as="alternateBounds" />
          </mxGeometry>
        </mxCell>
        <mxCell id="JfMbTLVUIL-YvnOcy8R8-60" value="q4" style="shape=partialRectangle;html=1;whiteSpace=wrap;connectable=0;strokeColor=inherit;overflow=hidden;fillColor=none;top=0;left=0;bottom=0;right=0;pointerEvents=1;strokeWidth=2;" vertex="1" parent="JfMbTLVUIL-YvnOcy8R8-54">
          <mxGeometry x="300" width="60" height="40" as="geometry">
            <mxRectangle width="60" height="40" as="alternateBounds" />
          </mxGeometry>
        </mxCell>
        <mxCell id="JfMbTLVUIL-YvnOcy8R8-61" value="" style="shape=tableRow;horizontal=0;startSize=0;swimlaneHead=0;swimlaneBody=0;strokeColor=inherit;top=0;left=0;bottom=0;right=0;collapsible=0;dropTarget=0;fillColor=none;points=[[0,0.5],[1,0.5]];portConstraint=eastwest;strokeWidth=2;" vertex="1" parent="JfMbTLVUIL-YvnOcy8R8-32">
          <mxGeometry y="160" width="360" height="40" as="geometry" />
        </mxCell>
        <mxCell id="JfMbTLVUIL-YvnOcy8R8-62" value="q3" style="shape=partialRectangle;html=1;whiteSpace=wrap;connectable=0;strokeColor=#d6b656;overflow=hidden;fillColor=#fff2cc;top=0;left=0;bottom=0;right=0;pointerEvents=1;strokeWidth=2;" vertex="1" parent="JfMbTLVUIL-YvnOcy8R8-61">
          <mxGeometry width="60" height="40" as="geometry">
            <mxRectangle width="60" height="40" as="alternateBounds" />
          </mxGeometry>
        </mxCell>
        <mxCell id="JfMbTLVUIL-YvnOcy8R8-63" value="" style="shape=partialRectangle;html=1;whiteSpace=wrap;connectable=0;strokeColor=inherit;overflow=hidden;fillColor=none;top=0;left=0;bottom=0;right=0;pointerEvents=1;strokeWidth=2;" vertex="1" parent="JfMbTLVUIL-YvnOcy8R8-61">
          <mxGeometry x="60" width="60" height="40" as="geometry">
            <mxRectangle width="60" height="40" as="alternateBounds" />
          </mxGeometry>
        </mxCell>
        <mxCell id="JfMbTLVUIL-YvnOcy8R8-64" value="" style="shape=partialRectangle;html=1;whiteSpace=wrap;connectable=0;strokeColor=inherit;overflow=hidden;fillColor=none;top=0;left=0;bottom=0;right=0;pointerEvents=1;strokeWidth=2;" vertex="1" parent="JfMbTLVUIL-YvnOcy8R8-61">
          <mxGeometry x="120" width="60" height="40" as="geometry">
            <mxRectangle width="60" height="40" as="alternateBounds" />
          </mxGeometry>
        </mxCell>
        <mxCell id="JfMbTLVUIL-YvnOcy8R8-65" value="" style="shape=partialRectangle;html=1;whiteSpace=wrap;connectable=0;strokeColor=inherit;overflow=hidden;fillColor=none;top=0;left=0;bottom=0;right=0;pointerEvents=1;strokeWidth=2;" vertex="1" parent="JfMbTLVUIL-YvnOcy8R8-61">
          <mxGeometry x="180" width="60" height="40" as="geometry">
            <mxRectangle width="60" height="40" as="alternateBounds" />
          </mxGeometry>
        </mxCell>
        <mxCell id="JfMbTLVUIL-YvnOcy8R8-66" value="" style="shape=partialRectangle;html=1;whiteSpace=wrap;connectable=0;strokeColor=inherit;overflow=hidden;fillColor=none;top=0;left=0;bottom=0;right=0;pointerEvents=1;strokeWidth=2;" vertex="1" parent="JfMbTLVUIL-YvnOcy8R8-61">
          <mxGeometry x="240" width="60" height="40" as="geometry">
            <mxRectangle width="60" height="40" as="alternateBounds" />
          </mxGeometry>
        </mxCell>
        <mxCell id="JfMbTLVUIL-YvnOcy8R8-67" value="q4" style="shape=partialRectangle;html=1;whiteSpace=wrap;connectable=0;strokeColor=inherit;overflow=hidden;fillColor=none;top=0;left=0;bottom=0;right=0;pointerEvents=1;strokeWidth=2;" vertex="1" parent="JfMbTLVUIL-YvnOcy8R8-61">
          <mxGeometry x="300" width="60" height="40" as="geometry">
            <mxRectangle width="60" height="40" as="alternateBounds" />
          </mxGeometry>
        </mxCell>
        <mxCell id="JfMbTLVUIL-YvnOcy8R8-68" value="" style="shape=tableRow;horizontal=0;startSize=0;swimlaneHead=0;swimlaneBody=0;strokeColor=inherit;top=0;left=0;bottom=0;right=0;collapsible=0;dropTarget=0;fillColor=none;points=[[0,0.5],[1,0.5]];portConstraint=eastwest;strokeWidth=2;" vertex="1" parent="JfMbTLVUIL-YvnOcy8R8-32">
          <mxGeometry y="200" width="360" height="40" as="geometry" />
        </mxCell>
        <mxCell id="JfMbTLVUIL-YvnOcy8R8-69" value="q4" style="shape=partialRectangle;html=1;whiteSpace=wrap;connectable=0;strokeColor=#d6b656;overflow=hidden;fillColor=#fff2cc;top=0;left=0;bottom=0;right=0;pointerEvents=1;strokeWidth=2;" vertex="1" parent="JfMbTLVUIL-YvnOcy8R8-68">
          <mxGeometry width="60" height="40" as="geometry">
            <mxRectangle width="60" height="40" as="alternateBounds" />
          </mxGeometry>
        </mxCell>
        <mxCell id="JfMbTLVUIL-YvnOcy8R8-70" value="" style="shape=partialRectangle;html=1;whiteSpace=wrap;connectable=0;strokeColor=inherit;overflow=hidden;fillColor=none;top=0;left=0;bottom=0;right=0;pointerEvents=1;strokeWidth=2;" vertex="1" parent="JfMbTLVUIL-YvnOcy8R8-68">
          <mxGeometry x="60" width="60" height="40" as="geometry">
            <mxRectangle width="60" height="40" as="alternateBounds" />
          </mxGeometry>
        </mxCell>
        <mxCell id="JfMbTLVUIL-YvnOcy8R8-71" value="" style="shape=partialRectangle;html=1;whiteSpace=wrap;connectable=0;strokeColor=inherit;overflow=hidden;fillColor=none;top=0;left=0;bottom=0;right=0;pointerEvents=1;strokeWidth=2;" vertex="1" parent="JfMbTLVUIL-YvnOcy8R8-68">
          <mxGeometry x="120" width="60" height="40" as="geometry">
            <mxRectangle width="60" height="40" as="alternateBounds" />
          </mxGeometry>
        </mxCell>
        <mxCell id="JfMbTLVUIL-YvnOcy8R8-72" value="" style="shape=partialRectangle;html=1;whiteSpace=wrap;connectable=0;strokeColor=inherit;overflow=hidden;fillColor=none;top=0;left=0;bottom=0;right=0;pointerEvents=1;strokeWidth=2;" vertex="1" parent="JfMbTLVUIL-YvnOcy8R8-68">
          <mxGeometry x="180" width="60" height="40" as="geometry">
            <mxRectangle width="60" height="40" as="alternateBounds" />
          </mxGeometry>
        </mxCell>
        <mxCell id="JfMbTLVUIL-YvnOcy8R8-73" value="" style="shape=partialRectangle;html=1;whiteSpace=wrap;connectable=0;strokeColor=inherit;overflow=hidden;fillColor=none;top=0;left=0;bottom=0;right=0;pointerEvents=1;strokeWidth=2;" vertex="1" parent="JfMbTLVUIL-YvnOcy8R8-68">
          <mxGeometry x="240" width="60" height="40" as="geometry">
            <mxRectangle width="60" height="40" as="alternateBounds" />
          </mxGeometry>
        </mxCell>
        <mxCell id="JfMbTLVUIL-YvnOcy8R8-74" value="q0" style="shape=partialRectangle;html=1;whiteSpace=wrap;connectable=0;strokeColor=inherit;overflow=hidden;fillColor=none;top=0;left=0;bottom=0;right=0;pointerEvents=1;strokeWidth=2;" vertex="1" parent="JfMbTLVUIL-YvnOcy8R8-68">
          <mxGeometry x="300" width="60" height="40" as="geometry">
            <mxRectangle width="60" height="40" as="alternateBounds" />
          </mxGeometry>
        </mxCell>
      </root>
    </mxGraphModel>
  </diagram>
</mxfile>
